# xmcd
#
# Track frame offsets:
#	150
#	17125
#	30023
#	42840
#	53588
#	65235
#	83410
#	93573
#	106020
#	117710
#	131445
#	145155
#	163873
#	176488
#	188880
#	197860
#	209260
#	221140
#	237803
#	250220
#
# Disc length: 3498 seconds
#
# Revision: 2
# Processed by: cddbd v1.4PL0 Copyright (c) Steve Scherf et al.
# Submitted via: CDmax 1.9
#
DISCID=170da814
DTITLE=Johnny Cash - Johnny Cash Sings His Best
DYEAR=1993
DGENRE=Country
TTITLE0=Ghost Riders in the Sky
TTITLE1=Man in Black
TTITLE2=See Ruby Fall
TTITLE3=Daddy Sang Bass
TTITLE4=Ring of Fire
TTITLE5=One Piece at a Time
TTITLE6=Kate
TTITLE7=Any Old Wind that Blows
TTITLE8=Flesh and Blood
TTITLE9=Don't Take Your Guns to Town
TTITLE10=Oney
TTITLE11=Sunday Morning Coming Down
TTITLE12=The One on the Left is on the Right
TTITLE13=Folsom Prison Blues
TTITLE14=Rosanna's Going Wild
TTITLE15=A Thing Called Love
TTITLE16=What is Truth?
TTITLE17=A Boy Named Sue
TTITLE18=The Matador
TTITLE19=Understand Your Man
EXTD=(c)1993 Sony Music Entertainment USA\nSony Music Special Products A 17627
EXTD=\nTeeVee Records TVCD 6006\nupc 012676600620
EXTT0=
EXTT1=
EXTT2=
EXTT3=
EXTT4=
EXTT5=
EXTT6=
EXTT7=
EXTT8=
EXTT9=
EXTT10=
EXTT11=
EXTT12=
EXTT13=
EXTT14=
EXTT15=
EXTT16=
EXTT17=
EXTT18=
EXTT19=
PLAYORDER=
